<?xml version="1.0" standalone="no"?>
<!DOCTYPE svg PUBLIC "-//W3C//DTD SVG 20010904//EN"
 "http://www.w3.org/TR/2001/REC-SVG-20010904/DTD/svg10.dtd">
<svg version="1.0" xmlns="http://www.w3.org/2000/svg"
 width="1024.000000pt" height="1024.000000pt" viewBox="0 0 1024.000000 1024.000000"
 preserveAspectRatio="xMidYMid meet">
<metadata>
Created by potrace 1.14, written by Peter Selinger 2001-2017
</metadata>
<g transform="translate(0.000000,1024.000000) scale(0.100000,-0.100000)"
fill="#000000" stroke="none">
<path d="M0 5120 l0 -5120 5120 0 5120 0 0 5120 0 5120 -5120 0 -5120 0 0
-5120z m8714 4249 c49 -5 118 -12 155 -15 102 -7 267 -46 281 -66 3 -4 30 -11
60 -16 46 -6 55 -11 53 -27 -1 -11 5 -42 13 -68 17 -51 12 -113 -9 -120 -9 -3
-13 -794 -18 -3638 -5 -2683 -9 -3641 -18 -3662 -6 -16 -11 -43 -12 -60 l-1
-32 -7 31 c-5 17 -5 69 -2 115 5 76 6 79 12 39 4 -29 6 -7 6 65 0 72 -2 98 -7
75 -4 -19 -8 -29 -9 -22 0 6 -8 12 -16 12 -12 0 -15 -15 -16 -70 -2 -92 -2
-93 -17 -98 -9 -3 -12 19 -14 85 l-2 88 -5 -80 c-4 -52 -10 -81 -18 -83 -17
-3 -17 60 0 77 6 8 7 11 1 8 -6 -3 -11 0 -11 8 0 8 5 11 11 8 6 -4 5 1 -3 10
-7 9 -11 17 -8 17 3 0 1 15 -6 33 -17 50 -26 895 -32 3097 -7 2931 -12 3782
-20 3807 -4 14 -16 23 -29 23 -54 1 -104 9 -131 21 -23 10 -122 13 -405 14
-206 1 -422 5 -480 9 -177 12 -402 44 -465 66 -168 58 -232 59 -2850 62 -1777
2 -3450 11 -3495 19 -8 2 -28 0 -43 -4 -21 -6 -27 -5 -21 4 4 8 3 9 -4 5 -8
-5 -9 -13 -2 -26 6 -11 12 -323 16 -799 l7 -781 52 0 c48 0 255 -58 340 -94
17 -7 55 -21 85 -31 30 -10 105 -42 165 -71 106 -50 113 -52 173 -47 48 5 66
2 80 -10 20 -18 213 -107 382 -177 130 -53 217 -96 273 -134 21 -15 60 -38 85
-52 49 -26 89 -52 157 -103 22 -17 61 -46 88 -66 26 -19 86 -60 134 -91 92
-59 126 -85 230 -176 52 -44 79 -80 124 -160 33 -56 59 -110 59 -119 0 -38 55
-178 65 -167 7 8 65 242 65 263 0 13 5 27 10 30 6 3 20 27 31 53 53 117 70
150 88 166 11 10 22 28 25 40 3 12 18 28 33 35 15 7 43 26 63 42 69 60 139 99
173 99 18 0 38 5 44 11 17 17 108 33 183 32 72 -1 209 -21 225 -33 6 -4 29
-11 53 -15 23 -4 42 -11 42 -16 0 -5 6 -9 13 -9 6 0 35 -12 62 -25 85 -42 85
-41 156 103 35 70 69 132 75 137 7 6 26 38 43 71 17 34 38 67 46 74 8 7 15 18
15 24 0 23 76 84 165 131 49 26 118 65 153 86 47 29 75 39 106 39 70 0 73 9
27 80 -23 35 -38 67 -34 70 5 4 55 12 113 19 250 28 296 34 308 44 7 5 12 33
12 68 l0 59 -37 1 -38 1 38 8 c21 4 43 12 50 19 7 7 15 101 23 264 7 138 15
301 19 360 l8 108 71 53 c105 78 105 78 165 56 28 -11 104 -46 169 -79 64 -32
146 -71 182 -86 36 -15 117 -53 180 -84 63 -31 133 -63 155 -71 22 -8 105 -47
185 -86 80 -38 173 -81 208 -94 34 -12 67 -31 73 -41 6 -12 6 -60 0 -136 -6
-65 -15 -212 -22 -328 l-11 -210 32 -25 c18 -14 69 -58 114 -99 104 -95 139
-163 129 -258 -5 -54 -3 -61 13 -65 11 -2 -10 -11 -46 -21 -36 -9 -126 -35
-200 -57 -74 -23 -149 -45 -166 -50 -17 -4 -49 -17 -70 -28 -22 -12 -57 -28
-79 -36 -61 -22 -270 -112 -363 -156 -45 -22 -89 -40 -98 -40 -8 0 -88 25
-178 55 -158 53 -226 67 -226 44 0 -13 31 -59 77 -113 54 -65 49 -70 -68 -63
-78 5 -104 10 -113 23 -11 15 -23 8 -108 -62 -53 -44 -108 -87 -122 -97 -40
-28 -34 -59 24 -117 28 -28 48 -55 44 -61 -3 -5 -101 -57 -217 -115 -116 -59
-244 -128 -284 -155 -100 -68 -143 -81 -143 -44 0 14 86 95 101 95 4 0 28 18
53 39 25 22 61 44 80 51 19 6 38 20 41 30 3 10 27 41 52 67 25 26 52 58 60 70
18 27 9 46 -15 34 -31 -16 -106 -39 -162 -50 -89 -16 -289 -33 -301 -25 -7 4
-44 11 -83 15 -39 5 -82 11 -96 14 -23 5 -28 0 -60 -67 -18 -40 -41 -82 -51
-93 -9 -11 -27 -39 -41 -63 -29 -50 -187 -185 -263 -224 -94 -49 -200 -96
-235 -102 -19 -4 -75 -16 -125 -27 -70 -16 -104 -18 -153 -12 -34 4 -63 11
-62 16 0 4 56 57 125 117 68 61 133 122 142 136 10 14 33 43 51 64 17 20 32
43 32 50 0 7 22 37 50 66 28 29 50 59 50 67 0 7 11 24 25 37 14 13 25 29 25
35 0 7 9 20 19 30 26 22 63 97 53 106 -18 18 -148 59 -219 69 -68 9 -87 8
-144 -8 -70 -19 -96 -36 -182 -113 -73 -65 -87 -70 -199 -78 -97 -6 -101 -8
-127 -38 -14 -18 -45 -54 -68 -81 -40 -47 -42 -51 -32 -85 5 -20 19 -56 29
-79 21 -47 25 -78 11 -78 -6 0 -34 30 -63 66 -120 149 -193 214 -238 214 -5 0
-34 12 -63 26 -28 14 -90 39 -137 54 -47 16 -112 38 -144 50 -33 11 -63 20
-68 20 -22 0 38 -42 93 -65 34 -15 73 -34 88 -44 14 -10 51 -35 81 -55 71 -48
120 -83 145 -104 11 -10 34 -27 52 -40 27 -19 135 -155 220 -276 19 -27 31
-76 19 -76 -7 0 -79 42 -96 55 -23 19 -101 60 -140 74 -37 14 -285 40 -386 41
-79 0 -111 -21 -95 -62 11 -30 26 -35 111 -41 82 -6 224 -48 317 -95 45 -23
84 -46 88 -52 4 -6 30 -22 58 -36 57 -29 127 -82 127 -97 0 -5 -29 -6 -67 -3
-38 3 -171 8 -298 11 -290 7 -281 11 -278 -102 1 -84 20 -138 50 -150 9 -3 30
1 47 10 26 13 51 15 156 8 69 -4 134 -12 146 -19 12 -6 54 -18 94 -28 59 -13
70 -18 59 -29 -13 -12 -129 -45 -159 -45 -8 0 -52 -14 -99 -32 -66 -25 -97
-43 -134 -80 l-47 -47 6 -71 c7 -68 6 -71 -29 -125 -20 -30 -50 -61 -66 -69
-16 -9 -67 -57 -114 -107 l-86 -92 -86 7 c-84 6 -87 6 -123 -23 -38 -30 -55
-34 -205 -47 -72 -7 -65 -9 -300 92 -43 19 -86 34 -95 34 -24 0 -390 368 -401
405 -5 16 -12 49 -16 71 -6 39 -4 43 32 73 31 26 46 31 90 31 28 0 64 -5 80
-11 76 -31 267 -60 376 -57 l102 3 -45 27 c-25 15 -88 46 -140 69 -195 87
-283 133 -328 171 -25 22 -62 51 -81 64 -61 42 -101 72 -141 106 -20 18 -56
46 -79 61 -67 46 -234 243 -275 324 -20 40 -36 78 -36 85 0 17 61 78 78 78 8
0 60 -16 116 -35 55 -19 115 -39 131 -44 74 -23 245 -73 290 -86 71 -21 149
-36 235 -46 41 -4 90 -11 109 -15 88 -18 -23 55 -175 114 -100 39 -147 65
-202 112 -102 88 -136 116 -250 208 -117 94 -154 132 -207 212 -16 25 -43 60
-59 79 -37 44 -65 107 -66 146 0 17 -4 36 -8 42 -5 7 -7 -20 -5 -60 1 -39 3
-1259 3 -2710 1 -1451 3 -2644 7 -2652 4 -13 71 -15 467 -14 253 0 453 4 443
8 -15 5 -12 9 17 19 20 7 40 11 45 8 5 -4 11 -2 13 3 4 12 130 37 228 46 112
9 299 24 440 35 167 13 1024 20 1225 10 398 -20 835 -67 835 -90 0 -4 23 -11
50 -15 28 -4 47 -11 44 -16 -3 -5 166 -9 413 -10 599 0 2233 -17 2263 -23 14
-2 186 -7 384 -11 280 -5 362 -9 372 -20 11 -11 11 -14 -2 -19 -9 -3 -28 -6
-43 -6 -26 0 -51 -21 -64 -52 -4 -11 -23 -18 -59 -22 -29 -3 -96 -10 -149 -16
-110 -11 -608 -18 -1948 -25 -548 -3 -957 -9 -960 -14 -4 -5 -40 -10 -81 -12
-46 -1 -89 -9 -110 -20 -49 -24 -147 -46 -265 -59 -206 -22 -426 -41 -600 -51
-237 -13 -926 -19 -1085 -9 -295 18 -352 22 -485 35 -255 25 -349 37 -405 51
-30 8 -71 14 -92 14 -21 0 -64 9 -95 20 -32 11 -72 20 -90 20 -17 0 -34 4 -38
10 -3 5 -159 10 -393 10 -346 2 -413 3 -460 8 -10 2 -12 587 -10 3109 3 3391
10 4863 26 4931 5 24 19 57 31 73 12 17 23 39 24 50 1 14 16 27 44 40 23 10
44 23 47 28 8 12 67 19 211 26 66 4 125 8 131 10 6 2 1305 6 2885 9 1581 4
2919 9 2974 12 72 4 105 10 118 22 13 11 39 17 85 18 78 2 149 12 173 24 18
10 66 15 319 30 96 6 182 12 190 15 24 6 386 -5 484 -16z m-3021 -1706 c-7 -2
-21 -2 -30 0 -10 3 -4 5 12 5 17 0 24 -2 18 -5z m-205 -20 c-10 -2 -28 -2 -40
0 -13 2 -5 4 17 4 22 1 32 -1 23 -4z m-108 -17 c0 -2 -8 -10 -17 -17 -16 -13
-17 -12 -4 4 13 16 21 21 21 13z m2830 -806 c8 -5 11 -10 5 -10 -5 0 -17 5
-25 10 -8 5 -10 10 -5 10 6 0 17 -5 25 -10z m245 -118 c-3 -3 -11 0 -18 7 -9
10 -8 11 6 5 10 -3 15 -9 12 -12z m40 -20 c-3 -3 -11 0 -18 7 -9 10 -8 11 6 5
10 -3 15 -9 12 -12z m161 -80 c-5 -4 -146 66 -146 73 0 3 34 -12 75 -32 41
-20 73 -39 71 -41z m114 -67 c19 -19 31 -35 28 -35 -3 0 -22 16 -41 35 -19 19
-32 35 -28 35 4 0 22 -16 41 -35z m132 -159 c10 -19 8 -18 -16 3 -14 14 -26
29 -26 34 0 13 29 -12 42 -37z m48 -359 c0 -2 -10 -12 -22 -23 l-23 -19 19 23
c18 21 26 27 26 19z m-91 -83 c-13 -14 -37 -35 -54 -46 -17 -11 -8 1 20 26 54
50 72 61 34 20z m-2059 -64 c88 -23 139 -29 171 -20 50 15 139 12 195 -5 27
-8 63 -15 81 -15 26 0 39 -10 75 -52 64 -76 89 -115 98 -151 10 -39 30 -96 41
-119 5 -10 9 -54 9 -99 0 -73 19 -376 35 -564 3 -38 10 -135 15 -215 18 -302
29 -446 35 -490 8 -60 35 -377 47 -565 17 -263 17 -261 -27 -510 -32 -189 -41
-214 -120 -335 -83 -128 -89 -137 -155 -233 -38 -55 -48 -54 -56 9 -5 46 -14
64 -53 110 -40 47 -55 57 -113 75 -74 23 -80 33 -49 77 27 39 96 180 111 227
6 22 22 67 35 100 29 73 87 305 110 439 22 124 17 338 -9 364 -25 25 -35 5
-56 -109 -31 -162 -50 -232 -128 -460 -33 -97 -78 -212 -100 -256 -43 -84
-107 -153 -143 -153 -55 0 -109 24 -170 77 -210 181 -327 308 -394 428 -37 66
-98 129 -118 122 -46 -15 -81 -160 -58 -236 27 -88 194 -303 406 -518 92 -95
145 -156 140 -162 -6 -5 -42 -19 -82 -30 -78 -23 -103 -46 -103 -93 0 -23 -6
-29 -42 -40 -24 -7 -58 -23 -77 -35 -19 -13 -52 -28 -74 -34 -22 -6 -47 -14
-56 -19 -39 -19 -197 -42 -417 -60 -67 -5 -143 -14 -169 -20 -53 -12 -268 -6
-330 10 -22 5 -64 10 -94 10 -50 0 -182 34 -256 66 -16 7 -56 20 -88 29 -64
19 -201 87 -232 115 -11 11 -55 35 -98 55 -42 20 -77 40 -77 45 0 5 -15 16
-32 24 -18 7 -44 26 -58 41 -14 15 -40 33 -57 40 -18 8 -33 19 -33 25 0 5 -24
26 -52 44 -29 19 -73 55 -98 81 -25 26 -71 65 -103 87 -32 22 -60 45 -63 52
-3 7 -37 39 -76 72 -40 32 -94 78 -120 102 -30 25 -59 42 -74 42 -13 0 -36 7
-50 16 -19 13 -37 15 -79 10 -67 -8 -72 6 -22 64 18 22 38 49 44 62 22 47 45
139 39 161 -10 41 -65 106 -108 128 -36 18 -46 20 -79 10 -42 -13 -69 -43 -69
-79 0 -12 -8 -25 -17 -29 -10 -3 -25 -12 -34 -20 -14 -12 -17 -6 -28 54 -19
111 -43 295 -70 543 -6 52 -15 115 -20 140 -19 86 -15 112 23 143 19 15 44 27
56 27 11 0 31 6 43 14 12 8 69 39 127 70 58 30 106 62 108 70 3 12 15 16 46
16 28 0 52 7 69 20 14 11 33 20 42 20 16 0 125 49 135 61 3 3 33 16 66 27 59
20 88 32 214 89 30 14 80 42 110 62 30 21 78 46 105 55 28 10 75 31 105 46 30
16 72 33 92 38 37 10 56 21 204 115 41 26 78 47 83 47 4 0 26 13 48 29 23 16
63 41 89 56 27 14 83 47 125 73 41 26 115 71 164 100 49 30 103 64 119 77 17
12 41 26 54 30 12 3 36 18 52 32 17 14 50 30 73 35 23 5 101 23 172 38 72 16
162 38 200 49 39 11 88 21 110 21 86 1 267 31 327 55 35 13 88 31 118 39 30 8
69 19 85 25 34 10 182 5 235 -9z m1885 -50 c-3 -5 -12 -10 -18 -10 -7 0 -6 4
3 10 19 12 23 12 15 0z m-105 -44 c0 -2 -7 -7 -16 -10 -8 -3 -12 -2 -9 4 6 10
25 14 25 6z m-41 -20 c-10 -9 -109 -56 -109 -51 0 6 91 54 104 55 5 0 7 -2 5
-4z m-119 -60 c0 -2 -7 -7 -16 -10 -8 -3 -12 -2 -9 4 6 10 25 14 25 6z m-40
-20 c0 -2 -7 -7 -16 -10 -8 -3 -12 -2 -9 4 6 10 25 14 25 6z m-40 -20 c0 -2
-7 -7 -16 -10 -8 -3 -12 -2 -9 4 6 10 25 14 25 6z m-120 -60 c0 -2 -7 -7 -16
-10 -8 -3 -12 -2 -9 4 6 10 25 14 25 6z m-40 -20 c0 -2 -7 -7 -16 -10 -8 -3
-12 -2 -9 4 6 10 25 14 25 6z m-260 -116 c-8 -5 -22 -9 -30 -9 -10 0 -8 3 5 9
27 12 43 12 25 0z m-60 -24 c0 -2 -7 -7 -16 -10 -8 -3 -12 -2 -9 4 6 10 25 14
25 6z m-40 -20 c0 -2 -7 -7 -16 -10 -8 -3 -12 -2 -9 4 6 10 25 14 25 6z
m-4337 -2163 c-7 -2 -19 -2 -25 0 -7 3 -2 5 12 5 14 0 19 -2 13 -5z m-97 -48
c10 -8 27 -15 38 -15 10 0 34 -13 53 -30 28 -25 42 -30 84 -30 49 0 53 -2 152
-90 56 -50 142 -128 191 -173 49 -45 98 -88 110 -96 11 -8 46 -38 76 -66 30
-28 73 -64 95 -78 22 -15 69 -52 105 -82 36 -30 79 -61 95 -70 17 -8 59 -33
95 -55 36 -22 77 -45 93 -51 15 -6 27 -15 27 -20 0 -5 6 -9 13 -9 7 0 28 -11
47 -25 19 -14 42 -25 51 -25 10 0 30 -6 46 -14 15 -8 69 -26 118 -41 50 -14
98 -30 107 -35 10 -6 28 -10 42 -10 13 0 29 -7 36 -15 9 -10 32 -15 77 -15 35
0 73 -5 83 -10 19 -10 183 -22 300 -22 160 0 546 36 566 53 19 16 319 16 338
0 10 -8 16 -9 21 -1 3 5 25 10 49 10 32 0 48 -6 66 -25 29 -31 72 -39 136 -26
129 27 149 32 158 41 6 6 15 10 21 10 35 0 -235 -153 -320 -180 -22 -7 -55
-21 -73 -32 -18 -10 -42 -18 -52 -18 -11 0 -28 -4 -38 -9 -9 -5 -37 -14 -62
-21 -25 -6 -73 -20 -106 -31 -34 -10 -73 -19 -86 -19 -13 0 -28 -4 -34 -9 -5
-5 -31 -12 -59 -15 -27 -2 -75 -9 -105 -14 -30 -6 -71 -13 -90 -16 -223 -39
-256 -41 -620 -41 -311 0 -381 3 -475 19 -60 10 -114 22 -119 27 -6 5 -27 9
-48 9 -21 0 -46 4 -56 10 -9 5 -127 46 -262 91 -135 45 -252 87 -260 94 -8 7
-37 24 -65 38 -34 17 -99 75 -201 179 -227 231 -215 213 -309 483 -10 28 -21
59 -26 70 -19 50 -30 100 -49 237 -11 82 -20 155 -20 163 0 19 21 19 46 0z"/>
<path d="M6677 7488 c-8 -26 5 -48 29 -48 16 0 24 6 24 18 0 33 -43 58 -53 30z"/>
<path d="M5762 7428 c-7 -7 -12 -23 -12 -35 0 -23 2 -24 88 -21 l87 3 3 33 3
32 -78 0 c-48 0 -84 -5 -91 -12z"/>
<path d="M6680 7381 c0 -68 32 -67 44 2 7 35 5 37 -19 37 -23 0 -25 -4 -25
-39z"/>
<path d="M1153 6967 c2 -294 3 -305 20 -286 27 29 104 25 217 -11 52 -17 103
-35 112 -40 10 -6 24 -10 32 -10 7 0 45 -14 82 -31 38 -17 83 -37 99 -44 17
-7 66 -28 110 -48 128 -56 186 -77 216 -77 56 0 45 37 -20 67 -20 9 -45 24
-56 33 -11 9 -60 41 -110 70 -49 30 -99 61 -110 70 -11 9 -42 27 -68 40 -26
13 -93 64 -147 114 -55 50 -127 115 -160 145 -34 30 -69 70 -80 90 -17 35
-126 210 -135 219 -3 3 -4 -132 -2 -301z"/>
<path d="M5755 6938 c-16 -6 -70 -29 -120 -52 -73 -33 -106 -56 -179 -126 -95
-91 -206 -232 -206 -262 0 -25 28 -34 53 -19 11 7 45 19 76 27 33 9 85 35 126
63 192 132 301 204 336 222 21 10 39 25 39 32 0 8 -14 39 -31 70 -32 59 -39
63 -94 45z"/>
<path d="M5043 973 c9 -2 25 -2 35 0 9 3 1 5 -18 5 -19 0 -27 -2 -17 -5z"/>
<path d="M6875 5513 c-33 -96 -29 -359 8 -500 15 -57 55 -123 74 -123 21 0 50
70 62 149 15 99 -1 303 -31 386 -27 74 -64 135 -82 135 -8 0 -22 -21 -31 -47z"/>
<path d="M6238 5403 c-23 -26 -36 -55 -58 -125 -24 -76 -24 -99 -5 -231 12
-77 25 -122 54 -184 47 -97 76 -122 121 -103 38 16 43 26 64 117 38 171 4 405
-74 503 -35 45 -75 53 -102 23z"/>
</g>
</svg>
